<?xml version="1.0" encoding="UTF-8" standalone="no"?>
<svg
   xmlns:dc="http://purl.org/dc/elements/1.1/"
   xmlns:cc="http://creativecommons.org/ns#"
   xmlns:rdf="http://www.w3.org/1999/02/22-rdf-syntax-ns#"
   xmlns:svg="http://www.w3.org/2000/svg"
   xmlns="http://www.w3.org/2000/svg"
   xmlns:sodipodi="http://sodipodi.sourceforge.net/DTD/sodipodi-0.dtd"
   xmlns:inkscape="http://www.inkscape.org/namespaces/inkscape"
   width="22"
   height="16"
   version="1.1"
   id="svg3817"
   sodipodi:docname="camera.svg"
   inkscape:version="0.92.3 (2405546, 2018-03-11)">
  <metadata
     id="metadata3823">
    <rdf:RDF>
      <cc:Work
         rdf:about="">
        <dc:format>image/svg+xml</dc:format>
        <dc:type
           rdf:resource="http://purl.org/dc/dcmitype/StillImage" />
      </cc:Work>
    </rdf:RDF>
  </metadata>
  <defs
     id="defs3821" />
  <sodipodi:namedview
     pagecolor="#ffffff"
     bordercolor="#666666"
     borderopacity="1"
     objecttolerance="10"
     gridtolerance="10"
     guidetolerance="10"
     inkscape:pageopacity="0"
     inkscape:pageshadow="2"
     inkscape:window-width="1366"
     inkscape:window-height="705"
     id="namedview3819"
     showgrid="false"
     inkscape:zoom="33.5"
     inkscape:cx="11"
     inkscape:cy="8"
     inkscape:window-x="-8"
     inkscape:window-y="-8"
     inkscape:window-maximized="1"
     inkscape:current-layer="svg3817" />
  <title
     id="title3809">background</title>
  <path
     fill="none"
     d="M-1-1h24v18H-1z"
     id="path3811" />
  <title
     id="title3813">Layer 1</title>
  <path
     stroke="#000"
     fill="#fff"
     d="M18.073 2.776H14.93V1.5H7.07v1.276H3.927a1.69 1.69 0 0 0-1.677 1.7V13.3a1.69 1.69 0 0 0 1.677 1.701h14.146a1.69 1.69 0 0 0 1.677-1.7V4.475c0-.938-.751-1.7-1.677-1.7zM11 14.042c-2.802 0-5.08-2.312-5.08-5.154S8.197 3.733 11 3.733s5.081 2.313 5.081 5.155-2.28 5.154-5.081 5.154zm0-8.609c-1.882 0-3.406 1.547-3.406 3.454 0 1.909 1.525 3.455 3.406 3.455 1.88 0 3.405-1.546 3.405-3.455 0-1.907-1.523-3.454-3.405-3.454z"
     id="path3815" />
  <ellipse
     style="fill:#ac9393;fill-opacity:1"
     id="path3825"
     cx="10.985075"
     cy="8.8358212"
     rx="1.2537314"
     ry="1.3134328" />
  <rect
     style="fill:#ac9393;fill-opacity:1"
     id="rect3843"
     width="2.3283582"
     height="0.86567163"
     x="16.089552"
     y="3.8805971"
     ry="0.43283582" />
  <rect
     style="fill:#ac9393;fill-opacity:1"
     id="rect3845"
     width="1.9402986"
     height="1.6119403"
     x="3.7014925"
     y="4.0895524"
     ry="0.432836" />
</svg>
