<?xml version="1.0" encoding="UTF-8" standalone="no"?>
<svg
   xmlns:dc="http://purl.org/dc/elements/1.1/"
   xmlns:cc="http://creativecommons.org/ns#"
   xmlns:rdf="http://www.w3.org/1999/02/22-rdf-syntax-ns#"
   xmlns:svg="http://www.w3.org/2000/svg"
   xmlns="http://www.w3.org/2000/svg"
   xmlns:sodipodi="http://sodipodi.sourceforge.net/DTD/sodipodi-0.dtd"
   xmlns:inkscape="http://www.inkscape.org/namespaces/inkscape"
   width="20"
   height="20"
   version="1.1"
   id="svg3914"
   sodipodi:docname="phone.svg"
   inkscape:version="0.92.3 (2405546, 2018-03-11)">
  <metadata
     id="metadata3920">
    <rdf:RDF>
      <cc:Work
         rdf:about="">
        <dc:format>image/svg+xml</dc:format>
        <dc:type
           rdf:resource="http://purl.org/dc/dcmitype/StillImage" />
      </cc:Work>
    </rdf:RDF>
  </metadata>
  <defs
     id="defs3918" />
  <sodipodi:namedview
     pagecolor="#ffffff"
     bordercolor="#666666"
     borderopacity="1"
     objecttolerance="10"
     gridtolerance="10"
     guidetolerance="10"
     inkscape:pageopacity="0"
     inkscape:pageshadow="2"
     inkscape:window-width="1366"
     inkscape:window-height="705"
     id="namedview3916"
     showgrid="false"
     inkscape:zoom="26.796708"
     inkscape:cx="9.8142095"
     inkscape:cy="9.8920263"
     inkscape:window-x="-8"
     inkscape:window-y="-8"
     inkscape:window-maximized="1"
     inkscape:current-layer="svg3914" />
  <title
     id="title3902">background</title>
  <path
     fill="none"
     d="M-1-1h22v22H-1z"
     id="path3904" />
  <title
     id="title3906">Layer 1</title>
  <path
     style="fill:#00ffff;fill-opacity:1;stroke-width:0.02638458"
     d="M 9.5360326,19.834834 C 7.1151562,19.743874 4.7323029,18.710974 2.9923383,16.998323 0.70963829,14.751456 -0.34077371,11.596613 0.14518029,8.4470676 0.40322129,6.7746591 1.1126633,5.1505641 2.1586313,3.8377599 3.7249106,1.8719089 5.9493252,0.57617842 8.4278801,0.18589732 c 1.0840129,-0.1706921 2.2734989,-0.1573742 3.3325009,0.037312 1.668059,0.3066544 3.179285,0.99706758 4.50891,2.05992368 0.357919,0.2861084 1.043005,0.9617426 1.364393,1.3455708 0.78323,0.9353972 1.397564,2.0287608 1.784406,3.1758081 0.820117,2.4317749 0.663795,5.0655761 -0.43813,7.3818801 -1.212561,2.548864 -3.502319,4.488496 -6.219294,5.268301 -1.060383,0.304342 -2.071036,0.423485 -3.2246334,0.380141 z m 1.6490364,-0.535333 c 1.82953,-0.253272 3.447327,-0.954125 4.859477,-2.105197 0.346475,-0.282418 0.898863,-0.826501 1.187137,-1.169289 1.968601,-2.340868 2.68793,-5.452947 1.937256,-8.3812794 C 18.340406,4.4116842 15.868131,1.8629043 12.648374,0.9213933 12.236619,0.800989 11.658579,0.67898682 11.198261,0.61532972 10.774309,0.55670172 9.6088994,0.53481372 9.1460513,0.57678672 5.4002444,0.9164719 2.2208143,3.3965847 1.0100843,6.9232426 c -0.21905101,0.638057 -0.37536601,1.34261 -0.46245001,2.084382 -0.05562,0.473779 -0.04124,1.6011444 0.02683,2.1029774 0.190594,1.40512 0.63392001,2.655829 1.34481301,3.793976 1.5739329,2.519884 4.1914456,4.132109 7.194601,4.431428 0.3678208,0.03666 1.7140737,0.01293 2.0711897,-0.0365 z"
     id="path3934"
     inkscape:connector-curvature="0" />
  <path
     style="fill:#00ffff;fill-opacity:1;stroke-width:0.03731802"
     d="M 6.2764614,10.288106 V 3.8460103 h 3.669698 3.6696986 l 0.02479,2.4691455 c 0.03149,3.1372147 0.03225,9.8007232 0.0012,10.0982642 l -0.02363,0.226094 -0.246924,0.0211 c -0.135808,0.0116 -1.787692,0.03201 -3.6708526,0.04534 l -3.423927,0.02424 z M 13.217613,9.8542115 V 4.3311446 H 9.9709454 6.7242774 l -7.4e-5,4.5434689 c -4.1e-5,2.4989075 -0.01113,4.9842875 -0.02465,5.5230665 l -0.02457,0.979598 h 3.271315 3.2713166 z"
     id="path4112"
     inkscape:connector-curvature="0" />
  <ellipse
     style="fill:#b3b3b3;fill-opacity:1"
     id="path4114"
     cx="9.8519564"
     cy="15.988314"
     rx="0.44781622"
     ry="0.4291572" />
</svg>
