<?xml version="1.0" encoding="UTF-8" standalone="no"?>
<svg
   xmlns:dc="http://purl.org/dc/elements/1.1/"
   xmlns:cc="http://creativecommons.org/ns#"
   xmlns:rdf="http://www.w3.org/1999/02/22-rdf-syntax-ns#"
   xmlns:svg="http://www.w3.org/2000/svg"
   xmlns="http://www.w3.org/2000/svg"
   xmlns:sodipodi="http://sodipodi.sourceforge.net/DTD/sodipodi-0.dtd"
   xmlns:inkscape="http://www.inkscape.org/namespaces/inkscape"
   width="48"
   height="48"
   version="1.1"
   id="svg4424"
   sodipodi:docname="profile.svg"
   inkscape:version="0.92.3 (2405546, 2018-03-11)">
  <metadata
     id="metadata4430">
    <rdf:RDF>
      <cc:Work
         rdf:about="">
        <dc:format>image/svg+xml</dc:format>
        <dc:type
           rdf:resource="http://purl.org/dc/dcmitype/StillImage" />
      </cc:Work>
    </rdf:RDF>
  </metadata>
  <defs
     id="defs4428" />
  <sodipodi:namedview
     pagecolor="#ffffff"
     bordercolor="#666666"
     borderopacity="1"
     objecttolerance="10"
     gridtolerance="10"
     guidetolerance="10"
     inkscape:pageopacity="0"
     inkscape:pageshadow="2"
     inkscape:window-width="1366"
     inkscape:window-height="705"
     id="namedview4426"
     showgrid="false"
     inkscape:zoom="11.166667"
     inkscape:cx="24"
     inkscape:cy="24"
     inkscape:window-x="-8"
     inkscape:window-y="-8"
     inkscape:window-maximized="1"
     inkscape:current-layer="svg4424" />
  <g
     class="icon icon-profile"
     id="g4422"
     transform="translate(0.08955224)">
    <title
       id="title4417">profile</title>
    <ellipse
       cx="24"
       cy="24"
       id="svg_2"
       rx="23.1875"
       ry="23.125002"
       style="fill:#ffffff;stroke:#dddddd;stroke-width:1.5" />
    <path
       fill-opacity="null"
       d="M 27.5,34.5"
       id="svg_8"
       inkscape:connector-curvature="0"
       style="opacity:0.5;fill:#ffffff;stroke:#777777;stroke-width:1.5" />
    <path
       transform="rotate(0.02927611,24.007015,23.996449)"
       fill-opacity="null"
       d="m 28.960779,19.606747 c 0,0 0.874112,-4.385153 0,-5.870609 -0.875141,-1.485455 -1.224168,-2.474926 -3.148448,-3.183297 -1.92428,-0.708371 -1.223139,-0.567196 -2.622335,-0.494735 -1.399196,0.07121 -2.565707,0.989471 -2.565707,1.484206 0,0 -0.874112,0.07121 -1.223139,0.495985 -0.350056,0.424773 -0.932797,2.403714 -0.932797,2.899699 0,0.495985 0.291371,3.820456 0.582741,4.527577 l -0.346968,0.141175 c -0.291371,4.101555 1.165482,4.59754 1.165482,4.59754 0.524055,3.820456 1.04914,2.193826 1.04914,3.183297 0,0.989471 -0.525084,0.637159 -0.525084,0.637159 0,0 -0.465369,1.555418 -1.630851,2.121365 -1.165482,0.564698 -7.635348,3.60557 -8.161462,4.242729 -0.526114,0.638408 -0.466399,3.60807 -0.466399,3.60807 h 27.74403 c 0,0 0.06074,-2.969661 -0.465369,-3.60807 -0.527144,-0.638408 -6.99701,-3.678031 -8.162492,-4.242729 -1.165482,-0.565947 -1.630851,-2.121365 -1.630851,-2.121365 0,0 -0.525084,0.352312 -0.525084,-0.637159 0,-0.989471 0.525084,0.637159 1.050169,-3.183297 0,0 1.455823,-0.495985 1.165482,-4.59754 h -0.350056 -1e-6 z"
       id="svg_18"
       inkscape:connector-curvature="0"
       style="fill:#ffffff;stroke:#777777;stroke-width:1.5" />
  </g>
</svg>
